REM DIRINDEX 1\2,1\3,1\4,1\5,1\6
REM DIRNAME cjc030,folder01,folder02,folder03,folder04,folder05
TITLE ""
FILE "Disc2Track32.mp3" MP3
  TRACK 01 AUDIO
    TITLE "3:cjc030_02959"
    INDEX 01 00:00:00
  TRACK 02 AUDIO
    TITLE "0:"
    INDEX 01 00:01:03
  TRACK 03 AUDIO
    TITLE "4:cjc030_02960"
    INDEX 01 00:01:11
  TRACK 04 AUDIO
    TITLE "0:"
    INDEX 01 00:03:23
  TRACK 05 AUDIO
    TITLE "5:cjc030_02961"
    INDEX 01 00:03:33
  TRACK 06 AUDIO
    TITLE "0:"
    INDEX 01 00:04:40
  TRACK 07 AUDIO
    TITLE "6:cjc030_02962"
    INDEX 01 00:04:52
  TRACK 08 AUDIO
    TITLE "0:"
    INDEX 01 00:08:38
  TRACK 09 AUDIO
    TITLE "3:cjc030_02963"
    INDEX 01 00:09:12
  TRACK 10 AUDIO
    TITLE "0:"
    INDEX 01 00:10:37
  TRACK 11 AUDIO
    TITLE "4:cjc030_02964"
    INDEX 01 00:10:47
  TRACK 12 AUDIO
    TITLE "0:"
    INDEX 01 00:12:30
  TRACK 13 AUDIO
    TITLE "5:cjc030_02965"
    INDEX 01 00:12:38
  TRACK 14 AUDIO
    TITLE "0:"
    INDEX 01 00:13:65
  TRACK 15 AUDIO
    TITLE "6:cjc030_02966"
    INDEX 01 00:14:04
  TRACK 16 AUDIO
    TITLE "0:"
    INDEX 01 00:16:53
  TRACK 17 AUDIO
    TITLE "3:cjc030_02967"
    INDEX 01 00:17:27
  TRACK 18 AUDIO
    TITLE "0:"
    INDEX 01 00:18:50
  TRACK 19 AUDIO
    TITLE "4:cjc030_02968"
    INDEX 01 00:18:60
  TRACK 20 AUDIO
    TITLE "0:"
    INDEX 01 00:19:46
  TRACK 21 AUDIO
    TITLE "5:cjc030_02969"
    INDEX 01 00:19:52
  TRACK 22 AUDIO
    TITLE "0:"
    INDEX 01 00:21:02
  TRACK 23 AUDIO
    TITLE "3:cjc030_02970"
    INDEX 01 00:21:51
  TRACK 24 AUDIO
    TITLE "0:"
    INDEX 01 00:22:70
  TRACK 25 AUDIO
    TITLE "4:cjc030_02971"
    INDEX 01 00:23:04
  TRACK 26 AUDIO
    TITLE "0:"
    INDEX 01 00:25:27
  TRACK 27 AUDIO
    TITLE "5:cjc030_02972"
    INDEX 01 00:25:35
  TRACK 28 AUDIO
    TITLE "0:"
    INDEX 01 00:26:52
  TRACK 29 AUDIO
    TITLE "3:cjc030_02973"
    INDEX 01 00:27:34
  TRACK 30 AUDIO
    TITLE "0:"
    INDEX 01 00:28:64
  TRACK 31 AUDIO
    TITLE "4:cjc030_02974"
    INDEX 01 00:28:74
  TRACK 32 AUDIO
    TITLE "0:"
    INDEX 01 00:30:65
  TRACK 33 AUDIO
    TITLE "5:cjc030_02975"
    INDEX 01 00:31:00
  TRACK 34 AUDIO
    TITLE "0:"
    INDEX 01 00:32:31
  TRACK 35 AUDIO
    TITLE "6:cjc030_02976"
    INDEX 01 00:32:43
  TRACK 36 AUDIO
    TITLE "0:"
    INDEX 01 00:37:01
  TRACK 37 AUDIO
    TITLE "3:cjc030_02977"
    INDEX 01 00:37:50
  TRACK 38 AUDIO
    TITLE "0:"
    INDEX 01 00:38:71
  TRACK 39 AUDIO
    TITLE "4:cjc030_02978"
    INDEX 01 00:39:07
  TRACK 40 AUDIO
    TITLE "0:"
    INDEX 01 00:41:26
  TRACK 41 AUDIO
    TITLE "5:cjc030_02979"
    INDEX 01 00:41:34
  TRACK 42 AUDIO
    TITLE "0:"
    INDEX 01 00:42:55
  TRACK 43 AUDIO
    TITLE "6:cjc030_02980"
    INDEX 01 00:42:68
  TRACK 44 AUDIO
    TITLE "0:"
    INDEX 01 00:45:10
  TRACK 45 AUDIO
    TITLE "3:cjc030_02981"
    INDEX 01 00:45:57
  TRACK 46 AUDIO
    TITLE "0:"
    INDEX 01 00:47:23
  TRACK 47 AUDIO
    TITLE "4:cjc030_02982"
    INDEX 01 00:47:34
  TRACK 48 AUDIO
    TITLE "0:"
    INDEX 01 00:49:04
  TRACK 49 AUDIO
    TITLE "5:cjc030_02983"
    INDEX 01 00:49:10
  TRACK 50 AUDIO
    TITLE "0:"
    INDEX 01 00:50:54
  TRACK 51 AUDIO
    TITLE "3:cjc030_02984"
    INDEX 01 00:51:28
  TRACK 52 AUDIO
    TITLE "0:"
    INDEX 01 00:52:61
  TRACK 53 AUDIO
    TITLE "4:cjc030_02985"
    INDEX 01 00:52:69
  TRACK 54 AUDIO
    TITLE "0:"
    INDEX 01 00:53:58
  TRACK 55 AUDIO
    TITLE "5:cjc030_02986"
    INDEX 01 00:53:66
  TRACK 56 AUDIO
    TITLE "0:"
    INDEX 01 00:55:26
  TRACK 57 AUDIO
    TITLE "6:cjc030_02987"
    INDEX 01 00:55:36
  TRACK 58 AUDIO
    TITLE "0:"
    INDEX 01 00:59:45
  TRACK 59 AUDIO
    TITLE "3:cjc030_02988"
    INDEX 01 01:00:17
  TRACK 60 AUDIO
    TITLE "0:"
    INDEX 01 01:01:31
  TRACK 61 AUDIO
    TITLE "4:cjc030_02989"
    INDEX 01 01:01:40
  TRACK 62 AUDIO
    TITLE "0:"
    INDEX 01 01:03:35
  TRACK 63 AUDIO
    TITLE "5:cjc030_02990"
    INDEX 01 01:03:43
  TRACK 64 AUDIO
    TITLE "0:"
    INDEX 01 01:04:56
  TRACK 65 AUDIO
    TITLE "6:cjc030_02991"
    INDEX 01 01:04:68
  TRACK 66 AUDIO
    TITLE "0:"
    INDEX 01 01:08:50
  TRACK 67 AUDIO
    TITLE "3:cjc030_02992"
    INDEX 01 01:09:24
  TRACK 68 AUDIO
    TITLE "0:"
    INDEX 01 01:10:43
  TRACK 69 AUDIO
    TITLE "4:cjc030_02993"
    INDEX 01 01:10:53
  TRACK 70 AUDIO
    TITLE "0:"
    INDEX 01 01:11:43
  TRACK 71 AUDIO
    TITLE "5:cjc030_02994"
    INDEX 01 01:11:52
  TRACK 72 AUDIO
    TITLE "0:"
    INDEX 01 01:12:73
  TRACK 73 AUDIO
    TITLE "6:cjc030_02995"
    INDEX 01 01:13:08
  TRACK 74 AUDIO
    TITLE "0:"
    INDEX 01 01:17:67
  TRACK 75 AUDIO
    TITLE "3:cjc030_02996"
    INDEX 01 01:18:41
  TRACK 76 AUDIO
    TITLE "0:"
    INDEX 01 01:19:68
  TRACK 77 AUDIO
    TITLE "4:cjc030_02997"
    INDEX 01 01:20:02
  TRACK 78 AUDIO
    TITLE "0:"
    INDEX 01 01:22:37
  TRACK 79 AUDIO
    TITLE "5:cjc030_02998"
    INDEX 01 01:22:44
  TRACK 80 AUDIO
    TITLE "0:"
    INDEX 01 01:23:73
  TRACK 81 AUDIO
    TITLE "6:cjc030_02999"
    INDEX 01 01:24:08
  TRACK 82 AUDIO
    TITLE "0:"
    INDEX 01 01:26:74
  TRACK 83 AUDIO
    TITLE "3:cjc030_03000"
    INDEX 01 01:27:48
  TRACK 84 AUDIO
    TITLE "0:"
    INDEX 01 01:28:65
  TRACK 85 AUDIO
    TITLE "4:cjc030_03001"
    INDEX 01 01:28:74
  TRACK 86 AUDIO
    TITLE "0:"
    INDEX 01 01:33:21
  TRACK 87 AUDIO
    TITLE "5:cjc030_03002"
    INDEX 01 01:33:27
  TRACK 88 AUDIO
    TITLE "0:"
    INDEX 01 01:34:46
  TRACK 89 AUDIO
    TITLE "6:cjc030_03003"
    INDEX 01 01:34:59
  TRACK 90 AUDIO
    TITLE "0:"
    INDEX 01 01:38:69
  TRACK 91 AUDIO
    TITLE "3:cjc030_03004"
    INDEX 01 01:39:41
  TRACK 92 AUDIO
    TITLE "0:"
    INDEX 01 01:40:70
  TRACK 93 AUDIO
    TITLE "4:cjc030_03005"
    INDEX 01 01:41:03
  TRACK 94 AUDIO
    TITLE "0:"
    INDEX 01 01:42:61
  TRACK 95 AUDIO
    TITLE "5:cjc030_03006"
    INDEX 01 01:42:69
  TRACK 96 AUDIO
    TITLE "0:"
    INDEX 01 01:44:24
  TRACK 97 AUDIO
    TITLE "3:cjc030_03007"
    INDEX 01 01:45:04
  TRACK 98 AUDIO
    TITLE "0:"
    INDEX 01 01:46:21
  TRACK 99 AUDIO
    TITLE "4:cjc030_03008"
    INDEX 01 01:46:31
  TRACK 100 AUDIO
    TITLE "0:"
    INDEX 01 01:48:30
  TRACK 101 AUDIO
    TITLE "5:cjc030_03009"
    INDEX 01 01:48:40
  TRACK 102 AUDIO
    TITLE "0:"
    INDEX 01 01:49:59
  TRACK 103 AUDIO
    TITLE "6:cjc030_03010"
    INDEX 01 01:49:71
  TRACK 104 AUDIO
    TITLE "0:"
    INDEX 01 01:51:40
  TRACK 105 AUDIO
    TITLE "3:cjc030_03011"
    INDEX 01 01:52:14
  TRACK 106 AUDIO
    TITLE "0:"
    INDEX 01 01:53:39
  TRACK 107 AUDIO
    TITLE "4:cjc030_03012"
    INDEX 01 01:53:49
  TRACK 108 AUDIO
    TITLE "0:"
    INDEX 01 01:55:54
  TRACK 109 AUDIO
    TITLE "5:cjc030_03013"
    INDEX 01 01:55:62
  TRACK 110 AUDIO
    TITLE "0:"
    INDEX 01 01:57:13
  TRACK 111 AUDIO
    TITLE "6:cjc030_03014"
    INDEX 01 01:57:25
  TRACK 112 AUDIO
    TITLE "0:"
    INDEX 01 01:59:26
